<svg xmlns="http://www.w3.org/2000/svg" width="16.784" height="16.946" viewBox="0 0 16.784 16.946"><defs><style>.a{fill:#fff;}</style></defs><path class="a" d="M17.075,11.3a6.487,6.487,0,0,0,.06-.83,6.487,6.487,0,0,0-.06-.83l1.82-1.4A.422.422,0,0,0,19,7.7L17.274,4.771a.437.437,0,0,0-.526-.186L14.6,5.432a6.332,6.332,0,0,0-1.458-.83l-.328-2.245A.418.418,0,0,0,12.39,2H8.939a.418.418,0,0,0-.423.356L8.189,4.6a6.659,6.659,0,0,0-1.458.83L4.582,4.584a.424.424,0,0,0-.526.186L2.33,7.7a.413.413,0,0,0,.1.542l1.82,1.4a6.6,6.6,0,0,0-.06.83,6.6,6.6,0,0,0,.06.83l-1.82,1.4a.422.422,0,0,0-.1.542l1.726,2.932a.437.437,0,0,0,.526.186l2.148-.847a6.332,6.332,0,0,0,1.458.83l.328,2.245a.418.418,0,0,0,.423.356H12.39a.418.418,0,0,0,.423-.356l.328-2.245a6.659,6.659,0,0,0,1.458-.83l2.148.847a.424.424,0,0,0,.526-.186L19,13.244a.422.422,0,0,0-.1-.542Zm-6.41,2.135a2.966,2.966,0,1,1,3.02-2.966A3,3,0,0,1,10.665,13.439Z" transform="translate(-2.271 -2)"/></svg>