<svg xmlns="http://www.w3.org/2000/svg" width="16.784" height="16.484" viewBox="0 0 16.784 16.484"><defs><style>.a{fill:#fff;}</style></defs><path class="a" d="M17.106,2H3.678a1.661,1.661,0,0,0-1.67,1.648L2,18.484l3.357-3.3H17.106a1.669,1.669,0,0,0,1.678-1.648V3.648A1.669,1.669,0,0,0,17.106,2ZM7.035,11.89H5.357V10.242H7.035Zm0-2.473H5.357V7.769H7.035Zm0-2.473H5.357V5.3H7.035ZM12.91,11.89h-4.2V10.242h4.2Zm2.518-2.473H8.714V7.769h6.714Zm0-2.473H8.714V5.3h6.714Z" transform="translate(-2 -2)"/></svg>