<svg xmlns="http://www.w3.org/2000/svg" width="18.667" height="18.667" viewBox="0 0 18.667 18.667"><defs><style>.a{fill:#fff;}</style></defs><path class="a" d="M5.128,18.667a5.8,5.8,0,0,1-3.082-.535A3.629,3.629,0,0,1,.535,16.62,5.793,5.793,0,0,1,0,13.539V7.794A5.789,5.789,0,0,1,.535,4.713,3.623,3.623,0,0,1,2.047,3.2a5.791,5.791,0,0,1,3.082-.535H9.667v1H5.128a5.024,5.024,0,0,0-2.61.416,2.637,2.637,0,0,0-1.1,1.1A5.022,5.022,0,0,0,1,7.794v5.745a5.024,5.024,0,0,0,.416,2.61,2.629,2.629,0,0,0,1.1,1.1,5.012,5.012,0,0,0,2.61.417h5.744a5.012,5.012,0,0,0,2.61-.417,2.622,2.622,0,0,0,1.1-1.1A5.012,5.012,0,0,0,15,13.539V9h1v4.539a5.8,5.8,0,0,1-.535,3.082,3.634,3.634,0,0,1-1.512,1.512,5.8,5.8,0,0,1-3.082.535ZM11,3.833a3.834,3.834,0,1,1,3.833,3.834A3.833,3.833,0,0,1,11,3.833Z"/></svg>