<svg xmlns="http://www.w3.org/2000/svg" width="15.964" height="17.421" viewBox="0 0 15.964 17.421"><defs><style>.a{fill:#fff;}</style></defs><path class="a" d="M17.191,2.742H13.483a2.666,2.666,0,0,0-5,0H4.774A1.763,1.763,0,0,0,3,4.484V16.679a1.763,1.763,0,0,0,1.774,1.742H17.191a1.763,1.763,0,0,0,1.774-1.742V4.484A1.763,1.763,0,0,0,17.191,2.742Zm-6.208,0a.871.871,0,1,1-.887.871A.882.882,0,0,1,10.982,2.742Zm1.774,12.194H6.548V13.194h6.208Zm2.661-3.484H6.548V9.71h8.869Zm0-3.484H6.548V6.226h8.869Z" transform="translate(-3 -1)"/></svg>