<svg xmlns="http://www.w3.org/2000/svg" width="15.784" height="17.224" viewBox="0 0 15.784 17.224"><defs><style>.a{fill:#fff;}</style></defs><path class="a" d="M17.031,2.722H13.365a2.636,2.636,0,0,0-4.946,0H4.754A1.743,1.743,0,0,0,3,4.445V16.5a1.743,1.743,0,0,0,1.754,1.722H17.031A1.743,1.743,0,0,0,18.784,16.5V4.445A1.743,1.743,0,0,0,17.031,2.722Zm-6.138,0a.861.861,0,1,1-.877.861A.872.872,0,0,1,10.892,2.722ZM9.138,14.779,5.631,11.335,6.867,10.12l2.271,2.222,5.779-5.675L16.154,7.89Z" transform="translate(-3 -1)"/></svg>