<svg xmlns="http://www.w3.org/2000/svg" width="18.83" height="18.83" viewBox="0 0 18.83 18.83"><defs><style>.a{fill:#fff;}</style></defs><path class="a" d="M3.883,5.766H2V18.947A1.889,1.889,0,0,0,3.883,20.83H17.064V18.947H3.883ZM18.947,2H7.649A1.889,1.889,0,0,0,5.766,3.883v11.3a1.889,1.889,0,0,0,1.883,1.883h11.3a1.889,1.889,0,0,0,1.883-1.883V3.883A1.889,1.889,0,0,0,18.947,2Zm-.942,8.474H8.591V8.591h9.415ZM14.24,14.24H8.591V12.357H14.24Zm3.766-7.532H8.591V4.825h9.415Z" transform="translate(-2 -2)"/></svg>