<svg xmlns="http://www.w3.org/2000/svg" width="19.11" height="16.505" viewBox="0 0 19.11 16.505"><defs><style>.a{fill:#fff;}</style></defs><g transform="translate(-1 -2)"><circle class="a" cx="3.475" cy="3.475" r="3.475" transform="translate(4.475 4.606)"/><path class="a" d="M7.949,13.293C5.63,13.293,1,14.457,1,16.768V18.5H14.9V16.768C14.9,14.457,10.269,13.293,7.949,13.293ZM14.69,4.919,13.231,6.387a2.882,2.882,0,0,1,0,3.379l1.459,1.468a4.445,4.445,0,0,0,0-6.315ZM17.566,2,16.15,3.416a6.931,6.931,0,0,1,0,9.33l1.416,1.416A8.539,8.539,0,0,0,17.566,2Z"/></g></svg>