<svg xmlns="http://www.w3.org/2000/svg" width="16.784" height="18.316" viewBox="0 0 16.784 18.316"><defs><style>.a{fill:#fff;}</style></defs><path class="a" d="M16.987,15.737H5.8V13.905h11.19Zm0-3.663H5.8V10.242h11.19Zm0-3.663H5.8V6.579h11.19ZM3,20.316l1.4-1.374,1.4,1.374,1.4-1.374,1.4,1.374,1.4-1.374,1.4,1.374,1.4-1.374,1.4,1.374,1.4-1.374,1.4,1.374,1.4-1.374,1.4,1.374V2l-1.4,1.374L16.987,2l-1.4,1.374L14.19,2l-1.4,1.374L11.392,2l-1.4,1.374L8.595,2,7.2,3.374,5.8,2,4.4,3.374,3,2Z" transform="translate(-3 -2)"/></svg>