<svg xmlns="http://www.w3.org/2000/svg" width="19.11" height="16.21" viewBox="0 0 19.11 16.21"><defs><style>.a{fill:#fff;}</style></defs><g transform="translate(0 0)"><ellipse class="a" cx="3.475" cy="3.413" rx="3.475" ry="3.413" transform="translate(3.475 2.559)"/><path class="a" d="M7.949,13.091C5.63,13.091,1,14.234,1,16.5V18.21H14.9V16.5C14.9,14.234,10.269,13.091,7.949,13.091ZM14.69,4.867,13.231,6.308a2.789,2.789,0,0,1,0,3.319l1.459,1.442A4.311,4.311,0,0,0,14.69,4.867ZM17.566,2,16.15,3.391a6.717,6.717,0,0,1,0,9.163l1.416,1.391A8.281,8.281,0,0,0,17.566,2Z" transform="translate(-1 -2)"/></g></svg>