<svg xmlns="http://www.w3.org/2000/svg" width="19.366" height="18.449" viewBox="0 0 19.366 18.449"><defs><style>.a{fill:#f3cc30;}.b{fill:#f7db5e;}.c{fill:#edbd31;}</style></defs><g transform="translate(0)"><path class="a" d="M387.158,272.912l2.752,5.576a.311.311,0,0,0,.234.17l6.152.894a.311.311,0,0,1,.172.53l-4.452,4.339a.31.31,0,0,0-.089.275l1.051,6.128a.311.311,0,0,1-.451.328l-5.5-2.893a.31.31,0,0,0-.289,0l-5.5,2.893a.311.311,0,0,1-.451-.328l1.051-6.128a.31.31,0,0,0-.089-.275l-4.452-4.339a.311.311,0,0,1,.172-.53l6.152-.894a.311.311,0,0,0,.234-.17l2.751-5.576A.311.311,0,0,1,387.158,272.912Z" transform="translate(-377.196 -272.739)"/><g transform="translate(1.253 1.461)"><path class="b" d="M388.129,275.658l-2.452,4.749a.821.821,0,0,1-.655.441l-5.324.486,5.625.263a.82.82,0,0,0,.808-.535Z" transform="translate(-379.698 -275.658)"/></g><path class="c" d="M384.472,296.616l-.121.7a.311.311,0,0,0,.451.328l5.5-2.893a.31.31,0,0,1,.289,0l5.5,2.893a.311.311,0,0,0,.451-.328l-1.051-6.128a.31.31,0,0,1,.089-.275l4.452-4.34a.311.311,0,0,0-.172-.53l-2.061-.3A23.765,23.765,0,0,1,384.472,296.616Z" transform="translate(-380.767 -279.236)"/></g></svg>